{
  "accessors": [
    {
      "bufferView": 2,
      "componentType": 5126,
      "count": 289,
      "max": [
        19.689517974853516,
        85.81455993652344,
        36.64604568481445
      ],
      "min": [
        -53.60258102416992,
        34.54372787475586,
        -36.646053314208984
      ],
      "type": "VEC3"
    },
    {
      "bufferView": 2,
      "byteOffset": 3468,
      "componentType": 5126,
      "count": 289,
      "max": [
        0.9999573826789856,
        0.877275288105011,
        0.999984860420227
      ],
      "min": [
        -0.9999573230743408,
        -0.009238367900252342,
        -0.9999848008155823
      ],
      "type": "VEC3"
    },
    {
      "bufferView": 3,
      "componentType": 5126,
      "count": 289,
      "max": [
        1.0,
        0.055489566177129745,
        1.0,
        1.0
      ],
      "min": [
        -0.9999997615814209,
        -0.055489812046289444,
        -1.0,
        1.0
      ],
      "type": "VEC4"
    },
    {
      "bufferView": 1,
      "componentType": 5126,
      "count": 289,
      "max": [
        2.2563185691833496,
        0.9932140111923218
      ],
      "min": [
        -1.2562546730041504,
        0.014136910438537598
      ],
      "type": "VEC2"
    },
    {
      "bufferView": 0,
      "componentType": 5125,
      "count": 1428,
      "type": "SCALAR"
    },
    {
      "bufferView": 2,
      "byteOffset": 6936,
      "componentType": 5126,
      "count": 645,
      "max": [
        2.0116488933563232,
        12.102738380432129,
        2.011648416519165
      ],
      "min": [
        -7.184964179992676,
        -0.039501190185546875,
        -2.0116493701934814
      ],
      "type": "VEC3"
    },
    {
      "bufferView": 2,
      "byteOffset": 14676,
      "componentType": 5126,
      "count": 645,
      "max": [
        0.9999382495880127,
        1.0,
        0.9999383687973022
      ],
      "min": [
        -0.9999383091926575,
        -0.9996839165687561,
        -0.9999382495880127
      ],
      "type": "VEC3"
    },
    {
      "bufferView": 3,
      "byteOffset": 4624,
      "componentType": 5126,
      "count": 645,
      "max": [
        1.0,
        0.9999383687973022,
        0.9998947978019714,
        1.0
      ],
      "min": [
        -0.9999070763587952,
        -0.9999382495880127,
        -0.9998947381973267,
        -1.0
      ],
      "type": "VEC4"
    },
    {
      "bufferView": 1,
      "byteOffset": 2312,
      "componentType": 5126,
      "count": 645,
      "max": [
        0.980402946472168,
        0.8346943259239197
      ],
      "min": [
        0.018091201782226563,
        0.015378832817077637
      ],
      "type": "VEC2"
    },
    {
      "bufferView": 0,
      "byteOffset": 5712,
      "componentType": 5125,
      "count": 2538,
      "type": "SCALAR"
    },
    {
      "bufferView": 2,
      "byteOffset": 22416,
      "componentType": 5126,
      "count": 4,
      "max": [
        4.425448417663574,
        0.0,
        4.425448417663574
      ],
      "min": [
        -4.425448417663574,
        0.0,
        -4.425448417663574
      ],
      "type": "VEC3"
    },
    {
      "bufferView": 2,
      "byteOffset": 22464,
      "componentType": 5126,
      "count": 4,
      "max": [
        0.0,
        1.0,
        0.0
      ],
      "min": [
        0.0,
        1.0,
        0.0
      ],
      "type": "VEC3"
    },
    {
      "bufferView": 3,
      "byteOffset": 14944,
      "componentType": 5126,
      "count": 4,
      "max": [
        1.0,
        0.0,
        0.0,
        1.0
      ],
      "min": [
        1.0,
        0.0,
        0.0,
        1.0
      ],
      "type": "VEC4"
    },
    {
      "bufferView": 1,
      "byteOffset": 7472,
      "componentType": 5126,
      "count": 4,
      "max": [
        1.0,
        1.0001413822174072
      ],
      "min": [
        0.0,
        0.0
      ],
      "type": "VEC2"
    },
    {
      "bufferView": 0,
      "byteOffset": 15864,
      "componentType": 5125,
      "count": 6,
      "type": "SCALAR"
    }
  ],
  "asset": {
    "extras": {
      "author": "naira001 (https://sketchfab.com/naira001)",
      "license": "CC-BY-4.0 (http://creativecommons.org/licenses/by/4.0/)",
      "source": "https://sketchfab.com/3d-models/lamp-a54be692664c44289364fbd11b34502f",
      "title": "lamp"
    },
    "generator": "Sketchfab-12.67.0",
    "version": "2.0"
  },
  "bufferViews": [
    {
      "buffer": 0,
      "byteLength": 15888,
      "name": "floatBufferViews",
      "target": 34963
    },
    {
      "buffer": 0,
      "byteLength": 7504,
      "byteOffset": 15888,
      "byteStride": 8,
      "name": "floatBufferViews",
      "target": 34962
    },
    {
      "buffer": 0,
      "byteLength": 22512,
      "byteOffset": 23392,
      "byteStride": 12,
      "name": "floatBufferViews",
      "target": 34962
    },
    {
      "buffer": 0,
      "byteLength": 15008,
      "byteOffset": 45904,
      "byteStride": 16,
      "name": "floatBufferViews",
      "target": 34962
    }
  ],
  "buffers": [
    {
      "byteLength": 60912,
      "uri": "scene.bin"
    }
  ],
  "extensionsUsed": [
    "KHR_materials_clearcoat"
  ],
  "images": [
    {
      "uri": "textures/lampy_baseColor.png"
    },
    {
      "uri": "textures/lampy_metallicRoughness.png"
    },
    {
      "uri": "textures/lampy_emissive.png"
    },
    {
      "uri": "textures/lampy_normal.png"
    },
    {
      "uri": "textures/base_baseColor.png"
    },
    {
      "uri": "textures/base_metallicRoughness.png"
    },
    {
      "uri": "textures/base_normal.png"
    },
    {
      "uri": "textures/base_clearcoat.png"
    },
    {
      "uri": "textures/base_clearcoat_normal.png"
    },
    {
      "uri": "textures/blinn3_baseColor.png"
    },
    {
      "uri": "textures/blinn3_normal.png"
    }
  ],
  "materials": [
    {
      "doubleSided": true,
      "emissiveFactor": [
        0.8683247298883072,
        0.8683247298883072,
        0.8683247298883072
      ],
      "emissiveTexture": {
        "index": 2
      },
      "name": "lampy",
      "normalTexture": {
        "index": 3
      },
      "pbrMetallicRoughness": {
        "baseColorTexture": {
          "index": 0
        },
        "metallicRoughnessTexture": {
          "index": 1
        }
      }
    },
    {
      "doubleSided": true,
      "extensions": {
        "KHR_materials_clearcoat": {
          "clearcoatFactor": 1.0,
          "clearcoatNormalTexture": {
            "index": 8
          },
          "clearcoatRoughnessFactor": 0.37260061166542024,
          "clearcoatTexture": {
            "index": 7
          }
        }
      },
      "name": "base",
      "normalTexture": {
        "index": 6
      },
      "pbrMetallicRoughness": {
        "baseColorTexture": {
          "index": 4
        },
        "metallicRoughnessTexture": {
          "index": 5
        }
      }
    },
    {
      "alphaMode": "BLEND",
      "doubleSided": true,
      "name": "blinn3",
      "normalTexture": {
        "index": 10
      },
      "pbrMetallicRoughness": {
        "baseColorFactor": [
          0.17534715041373466,
          0.17149027461921348,
          0.13808058345732377,
          1.0
        ],
        "baseColorTexture": {
          "index": 9
        },
        "metallicFactor": 0.15371437778547933,
        "roughnessFactor": 0.9207483816249483
      }
    }
  ],
  "meshes": [
    {
      "name": "lampglass_lampy_0",
      "primitives": [
        {
          "attributes": {
            "NORMAL": 1,
            "POSITION": 0,
            "TANGENT": 2,
            "TEXCOORD_0": 3
          },
          "indices": 4,
          "material": 0,
          "mode": 4
        }
      ]
    },
    {
      "name": "basemetal_base_0",
      "primitives": [
        {
          "attributes": {
            "NORMAL": 6,
            "POSITION": 5,
            "TANGENT": 7,
            "TEXCOORD_0": 8
          },
          "indices": 9,
          "material": 1,
          "mode": 4
        }
      ]
    },
    {
      "name": "pPlane1_blinn3_0",
      "primitives": [
        {
          "attributes": {
            "NORMAL": 11,
            "POSITION": 10,
            "TANGENT": 12,
            "TEXCOORD_0": 13
          },
          "indices": 14,
          "material": 2,
          "mode": 4
        }
      ]
    }
  ],
  "nodes": [
    {
      "children": [
        1
      ],
      "matrix": [
        1.0,
        0.0,
        0.0,
        0.0,
        0.0,
        2.220446049250313e-16,
        -1.0,
        0.0,
        0.0,
        1.0,
        2.220446049250313e-16,
        0.0,
        0.0,
        0.0,
        0.0,
        1.0
      ],
      "name": "Sketchfab_model"
    },
    {
      "children": [
        2
      ],
      "matrix": [
        0.009999999776482582,
        0.0,
        0.0,
        0.0,
        0.0,
        0.0,
        0.009999999776482582,
        0.0,
        0.0,
        -0.009999999776482582,
        0.0,
        0.0,
        0.0,
        0.0,
        0.0,
        1.0
      ],
      "name": "3d4041dda8554af9bdd6d5ede614d9ce.fbx"
    },
    {
      "children": [
        3,
        7,
        9
      ],
      "name": "RootNode"
    },
    {
      "children": [
        4
      ],
      "matrix": [
        0.10000000149011612,
        0.0,
        0.0,
        0.0,
        0.0,
        0.10000000149011479,
        1.629206864824748e-08,
        0.0,
        0.0,
        -1.629206864824748e-08,
        0.10000000149011479,
        0.0,
        1.6956532001495361,
        2.1205508708953857,
        9.269223255614634e-08,
        1.0
      ],
      "name": "Line001"
    },
    {
      "children": [
        5
      ],
      "matrix": [
        1.0,
        0.0,
        0.0,
        0.0,
        0.0,
        1.0,
        -2.6469779601696886e-23,
        0.0,
        0.0,
        2.6469779601696886e-23,
        1.0,
        0.0,
        0.0,
        0.0,
        0.0,
        1.0
      ],
      "name": "polySurface1"
    },
    {
      "children": [
        6
      ],
      "matrix": [
        1.0,
        0.0,
        0.0,
        0.0,
        0.0,
        1.0,
        -2.646977960169688e-23,
        0.0,
        0.0,
        2.646977960169688e-23,
        1.0,
        0.0,
        0.0,
        0.0,
        0.0,
        1.0
      ],
      "name": "lampglass"
    },
    {
      "mesh": 0,
      "name": "lampglass_lampy_0"
    },
    {
      "children": [
        8
      ],
      "name": "basemetal"
    },
    {
      "mesh": 1,
      "name": "basemetal_base_0"
    },
    {
      "children": [
        10
      ],
      "name": "pPlane1"
    },
    {
      "mesh": 2,
      "name": "pPlane1_blinn3_0"
    }
  ],
  "samplers": [
    {
      "magFilter": 9729,
      "minFilter": 9987,
      "wrapS": 10497,
      "wrapT": 10497
    }
  ],
  "scene": 0,
  "scenes": [
    {
      "name": "Sketchfab_Scene",
      "nodes": [
        0
      ]
    }
  ],
  "textures": [
    {
      "sampler": 0,
      "source": 0
    },
    {
      "sampler": 0,
      "source": 1
    },
    {
      "sampler": 0,
      "source": 2
    },
    {
      "sampler": 0,
      "source": 3
    },
    {
      "sampler": 0,
      "source": 4
    },
    {
      "sampler": 0,
      "source": 5
    },
    {
      "sampler": 0,
      "source": 6
    },
    {
      "sampler": 0,
      "source": 7
    },
    {
      "sampler": 0,
      "source": 8
    },
    {
      "sampler": 0,
      "source": 9
    },
    {
      "sampler": 0,
      "source": 10
    }
  ]
}
