{
  "accessors": [
    {
      "bufferView": 2,
      "componentType": 5126,
      "count": 65532,
      "max": [
        1.0807090997695923,
        2.5090999603271484,
        2.7865207195281982
      ],
      "min": [
        -3.123300552368164,
        0.11172208189964294,
        -1.2320636510849
      ],
      "type": "VEC3"
    },
    {
      "bufferView": 2,
      "byteOffset": 786384,
      "componentType": 5126,
      "count": 65532,
      "max": [
        0.9999253749847412,
        0.9996129274368286,
        0.9999955296516418
      ],
      "min": [
        -0.999995231628418,
        -0.9999992251396179,
        -0.9999701380729675
      ],
      "type": "VEC3"
    },
    {
      "bufferView": 1,
      "componentType": 5126,
      "count": 65532,
      "max": [
        0.9967893362045288,
        0.9989299774169922
      ],
      "min": [
        0.0010382202453911304,
        0.0046544671058654785
      ],
      "type": "VEC2"
    },
    {
      "bufferView": 0,
      "componentType": 5125,
      "count": 335508,
      "type": "SCALAR"
    },
    {
      "bufferView": 2,
      "byteOffset": 1572768,
      "componentType": 5126,
      "count": 65532,
      "max": [
        1.1135684251785278,
        2.494452953338623,
        1.2971116304397583
      ],
      "min": [
        -3.169816732406616,
        -0.5542349219322205,
        -0.9372140169143677
      ],
      "type": "VEC3"
    },
    {
      "bufferView": 2,
      "byteOffset": 2359152,
      "componentType": 5126,
      "count": 65532,
      "max": [
        0.9999931454658508,
        0.9980893731117249,
        0.9999634623527527
      ],
      "min": [
        -0.9999715685844421,
        -0.9999929666519165,
        -0.9999439120292664
      ],
      "type": "VEC3"
    },
    {
      "bufferView": 1,
      "byteOffset": 524256,
      "componentType": 5126,
      "count": 65532,
      "max": [
        0.9980849027633667,
        0.9989050626754761
      ],
      "min": [
        0.001040539238601923,
        0.0014530420303344727
      ],
      "type": "VEC2"
    },
    {
      "bufferView": 0,
      "byteOffset": 1342032,
      "componentType": 5125,
      "count": 320064,
      "type": "SCALAR"
    },
    {
      "bufferView": 2,
      "byteOffset": 3145536,
      "componentType": 5126,
      "count": 65533,
      "max": [
        1.1161550283432007,
        2.5090999603271484,
        2.500354290008545
      ],
      "min": [
        -3.1948471069335938,
        -0.6200706958770752,
        -1.5794872045516968
      ],
      "type": "VEC3"
    },
    {
      "bufferView": 2,
      "byteOffset": 3931932,
      "componentType": 5126,
      "count": 65533,
      "max": [
        0.9999566674232483,
        0.9968719482421875,
        0.999971330165863
      ],
      "min": [
        -0.99997478723526,
        -0.9999921321868896,
        -0.9999986290931702
      ],
      "type": "VEC3"
    },
    {
      "bufferView": 1,
      "byteOffset": 1048512,
      "componentType": 5126,
      "count": 65533,
      "max": [
        0.9988038539886475,
        0.9989582300186157
      ],
      "min": [
        0.0010992001043632627,
        0.0026432275772094727
      ],
      "type": "VEC2"
    },
    {
      "bufferView": 0,
      "byteOffset": 2622288,
      "componentType": 5125,
      "count": 288981,
      "type": "SCALAR"
    },
    {
      "bufferView": 2,
      "byteOffset": 4718328,
      "componentType": 5126,
      "count": 134,
      "max": [
        0.611222505569458,
        2.350612163543701,
        2.559926986694336
      ],
      "min": [
        -2.513784408569336,
        0.32426929473876953,
        1.2947556972503662
      ],
      "type": "VEC3"
    },
    {
      "bufferView": 2,
      "byteOffset": 4719936,
      "componentType": 5126,
      "count": 134,
      "max": [
        0.8236225247383118,
        0.4141685664653778,
        0.9620129466056824
      ],
      "min": [
        -0.9454296231269836,
        -0.9947910308837891,
        -0.9953262209892273
      ],
      "type": "VEC3"
    },
    {
      "bufferView": 1,
      "byteOffset": 1572776,
      "componentType": 5126,
      "count": 134,
      "max": [
        0.9264702796936035,
        0.9950713515281677
      ],
      "min": [
        0.02864866703748703,
        0.05392444133758545
      ],
      "type": "VEC2"
    },
    {
      "bufferView": 0,
      "byteOffset": 3778212,
      "componentType": 5125,
      "count": 150,
      "type": "SCALAR"
    },
    {
      "bufferView": 2,
      "byteOffset": 4721544,
      "componentType": 5126,
      "count": 65532,
      "max": [
        0.583936870098114,
        2.5090999603271484,
        2.7232067584991455
      ],
      "min": [
        -2.942986488342285,
        0.11267286539077759,
        -1.2324529886245728
      ],
      "type": "VEC3"
    },
    {
      "bufferView": 2,
      "byteOffset": 5507928,
      "componentType": 5126,
      "count": 65532,
      "max": [
        0.9999828934669495,
        0.999228298664093,
        0.9999181628227234
      ],
      "min": [
        -0.9996703863143921,
        -0.9999752044677734,
        -0.9999254941940308
      ],
      "type": "VEC3"
    },
    {
      "bufferView": 1,
      "byteOffset": 1573848,
      "componentType": 5126,
      "count": 65532,
      "max": [
        0.999049186706543,
        0.9989609122276306
      ],
      "min": [
        0.0010384448105469346,
        0.2869494557380676
      ],
      "type": "VEC2"
    },
    {
      "bufferView": 0,
      "byteOffset": 3778812,
      "componentType": 5125,
      "count": 304044,
      "type": "SCALAR"
    },
    {
      "bufferView": 2,
      "byteOffset": 6294312,
      "componentType": 5126,
      "count": 65532,
      "max": [
        1.1283200979232788,
        2.5081636905670166,
        2.623182535171509
      ],
      "min": [
        -3.2031962871551514,
        -0.6470401883125305,
        0.055488470941782
      ],
      "type": "VEC3"
    },
    {
      "bufferView": 2,
      "byteOffset": 7080696,
      "componentType": 5126,
      "count": 65532,
      "max": [
        0.9999892711639404,
        0.9988996386528015,
        0.9999854564666748
      ],
      "min": [
        -0.9999743700027466,
        -0.9999704360961914,
        -0.9999938011169434
      ],
      "type": "VEC3"
    },
    {
      "bufferView": 1,
      "byteOffset": 2098104,
      "componentType": 5126,
      "count": 65532,
      "max": [
        0.9990514516830444,
        0.9989588856697083
      ],
      "min": [
        0.0010603449773043394,
        0.2816217541694641
      ],
      "type": "VEC2"
    },
    {
      "bufferView": 0,
      "byteOffset": 4994988,
      "componentType": 5125,
      "count": 287430,
      "type": "SCALAR"
    },
    {
      "bufferView": 2,
      "byteOffset": 7867080,
      "componentType": 5126,
      "count": 65532,
      "max": [
        1.1186953783035278,
        2.508629083633423,
        1.3000268936157227
      ],
      "min": [
        -3.04789400100708,
        -0.6470401883125305,
        -1.6298891305923462
      ],
      "type": "VEC3"
    },
    {
      "bufferView": 2,
      "byteOffset": 8653464,
      "componentType": 5126,
      "count": 65532,
      "max": [
        0.9999590516090393,
        0.999625563621521,
        0.9999944567680359
      ],
      "min": [
        -0.9999909400939941,
        -0.9999977350234985,
        -0.9999938011169434
      ],
      "type": "VEC3"
    },
    {
      "bufferView": 1,
      "byteOffset": 2622360,
      "componentType": 5126,
      "count": 65532,
      "max": [
        0.9990691542625427,
        0.9989618062973022
      ],
      "min": [
        0.0010399000020697713,
        0.2860555052757263
      ],
      "type": "VEC2"
    },
    {
      "bufferView": 0,
      "byteOffset": 6144708,
      "componentType": 5125,
      "count": 274932,
      "type": "SCALAR"
    },
    {
      "bufferView": 2,
      "byteOffset": 9439848,
      "componentType": 5126,
      "count": 29411,
      "max": [
        1.1081267595291138,
        2.508491277694702,
        2.7341742515563965
      ],
      "min": [
        -3.205280065536499,
        -0.6470401883125305,
        0.5314391851425171
      ],
      "type": "VEC3"
    },
    {
      "bufferView": 2,
      "byteOffset": 9792780,
      "componentType": 5126,
      "count": 29411,
      "max": [
        0.9999028444290161,
        0.9998346567153931,
        0.9999449849128723
      ],
      "min": [
        -0.9999909400939941,
        -0.9998477101325989,
        -0.999987006187439
      ],
      "type": "VEC3"
    },
    {
      "bufferView": 1,
      "byteOffset": 3146616,
      "componentType": 5126,
      "count": 29411,
      "max": [
        0.9990702271461487,
        0.9989622235298157
      ],
      "min": [
        0.0010403969790786505,
        0.28714919090270996
      ],
      "type": "VEC2"
    },
    {
      "bufferView": 0,
      "byteOffset": 7244436,
      "componentType": 5125,
      "count": 107502,
      "type": "SCALAR"
    }
  ],
  "asset": {
    "extras": {
      "author": "HoangHiepVu (https://sketchfab.com/HoangHiepVu)",
      "license": "CC-BY-4.0 (http://creativecommons.org/licenses/by/4.0/)",
      "source": "https://sketchfab.com/3d-models/fountain-with-a-dragon-in-nikko-japan-453d616370cd42c4ae217ae3c2f401ed",
      "title": "Fountain with a dragon in Nikko, Japan"
    },
    "generator": "Sketchfab-12.67.0",
    "version": "2.0"
  },
  "bufferViews": [
    {
      "buffer": 0,
      "byteLength": 7674444,
      "name": "floatBufferViews",
      "target": 34963
    },
    {
      "buffer": 0,
      "byteLength": 3381904,
      "byteOffset": 7674444,
      "byteStride": 8,
      "name": "floatBufferViews",
      "target": 34962
    },
    {
      "buffer": 0,
      "byteLength": 10145712,
      "byteOffset": 11056348,
      "byteStride": 12,
      "name": "floatBufferViews",
      "target": 34962
    }
  ],
  "buffers": [
    {
      "byteLength": 21202060,
      "uri": "scene.bin"
    }
  ],
  "extensionsUsed": [
    "KHR_materials_unlit"
  ],
  "images": [
    {
      "uri": "textures/Model_0_baseColor.jpeg"
    },
    {
      "uri": "textures/Model_1_baseColor.jpeg"
    }
  ],
  "materials": [
    {
      "doubleSided": true,
      "extensions": {
        "KHR_materials_unlit": {}
      },
      "name": "Model_0",
      "pbrMetallicRoughness": {
        "baseColorTexture": {
          "index": 0
        },
        "metallicFactor": 0.0
      }
    },
    {
      "doubleSided": true,
      "extensions": {
        "KHR_materials_unlit": {}
      },
      "name": "Model_1",
      "pbrMetallicRoughness": {
        "baseColorTexture": {
          "index": 1
        },
        "metallicFactor": 0.0
      }
    }
  ],
  "meshes": [
    {
      "name": "Object_0",
      "primitives": [
        {
          "attributes": {
            "NORMAL": 1,
            "POSITION": 0,
            "TEXCOORD_0": 2
          },
          "indices": 3,
          "material": 0,
          "mode": 4
        }
      ]
    },
    {
      "name": "Object_1",
      "primitives": [
        {
          "attributes": {
            "NORMAL": 5,
            "POSITION": 4,
            "TEXCOORD_0": 6
          },
          "indices": 7,
          "material": 0,
          "mode": 4
        }
      ]
    },
    {
      "name": "Object_2",
      "primitives": [
        {
          "attributes": {
            "NORMAL": 9,
            "POSITION": 8,
            "TEXCOORD_0": 10
          },
          "indices": 11,
          "material": 0,
          "mode": 4
        }
      ]
    },
    {
      "name": "Object_3",
      "primitives": [
        {
          "attributes": {
            "NORMAL": 13,
            "POSITION": 12,
            "TEXCOORD_0": 14
          },
          "indices": 15,
          "material": 0,
          "mode": 4
        }
      ]
    },
    {
      "name": "Object_4",
      "primitives": [
        {
          "attributes": {
            "NORMAL": 17,
            "POSITION": 16,
            "TEXCOORD_0": 18
          },
          "indices": 19,
          "material": 1,
          "mode": 4
        }
      ]
    },
    {
      "name": "Object_5",
      "primitives": [
        {
          "attributes": {
            "NORMAL": 21,
            "POSITION": 20,
            "TEXCOORD_0": 22
          },
          "indices": 23,
          "material": 1,
          "mode": 4
        }
      ]
    },
    {
      "name": "Object_6",
      "primitives": [
        {
          "attributes": {
            "NORMAL": 25,
            "POSITION": 24,
            "TEXCOORD_0": 26
          },
          "indices": 27,
          "material": 1,
          "mode": 4
        }
      ]
    },
    {
      "name": "Object_7",
      "primitives": [
        {
          "attributes": {
            "NORMAL": 29,
            "POSITION": 28,
            "TEXCOORD_0": 30
          },
          "indices": 31,
          "material": 1,
          "mode": 4
        }
      ]
    }
  ],
  "nodes": [
    {
      "children": [
        1
      ],
      "matrix": [
        1.0,
        0.0,
        0.0,
        0.0,
        0.0,
        -1.0,
        -2.220446049250313e-16,
        0.0,
        0.0,
        2.220446049250313e-16,
        -1.0,
        0.0,
        0.0,
        1.5093473196029663,
        -0.35271424055099454,
        1.0
      ],
      "name": "Sketchfab_model"
    },
    {
      "children": [
        2,
        3,
        4,
        5,
        6,
        7,
        8,
        9
      ],
      "name": "Model.obj.cleaner.materialmerger.gles"
    },
    {
      "mesh": 0,
      "name": "Object_2"
    },
    {
      "mesh": 1,
      "name": "Object_3"
    },
    {
      "mesh": 2,
      "name": "Object_4"
    },
    {
      "mesh": 3,
      "name": "Object_5"
    },
    {
      "mesh": 4,
      "name": "Object_6"
    },
    {
      "mesh": 5,
      "name": "Object_7"
    },
    {
      "mesh": 6,
      "name": "Object_8"
    },
    {
      "mesh": 7,
      "name": "Object_9"
    }
  ],
  "samplers": [
    {
      "magFilter": 9729,
      "minFilter": 9987,
      "wrapS": 10497,
      "wrapT": 10497
    }
  ],
  "scene": 0,
  "scenes": [
    {
      "name": "Sketchfab_Scene",
      "nodes": [
        0
      ]
    }
  ],
  "textures": [
    {
      "sampler": 0,
      "source": 0
    },
    {
      "sampler": 0,
      "source": 1
    }
  ]
}
