{
  "accessors": [
    {
      "bufferView": 2,
      "componentType": 5126,
      "count": 3792,
      "max": [
        2.004406213760376,
        0.005000000353902578,
        1.5213299989700317
      ],
      "min": [
        -1.9855124950408936,
        0.0,
        -1.5386406183242798
      ],
      "type": "VEC3"
    },
    {
      "bufferView": 2,
      "byteOffset": 45504,
      "componentType": 5126,
      "count": 3792,
      "max": [
        0.9999990463256836,
        1.0,
        0.9999970197677612
      ],
      "min": [
        -0.9999977946281433,
        -1.0,
        -0.9999988675117493
      ],
      "type": "VEC3"
    },
    {
      "bufferView": 1,
      "componentType": 5126,
      "count": 3792,
      "max": [
        0.9995964765548706,
        0.9731294512748718
      ],
      "min": [
        0.006848365068435669,
        0.023503819480538368
      ],
      "type": "VEC2"
    },
    {
      "bufferView": 0,
      "componentType": 5125,
      "count": 5940,
      "type": "SCALAR"
    },
    {
      "bufferView": 2,
      "byteOffset": 91008,
      "componentType": 5126,
      "count": 65533,
      "max": [
        0.06842353940010071,
        0.009409788064658642,
        1.5426583290100098
      ],
      "min": [
        -0.05173950642347336,
        -0.012697733938694,
        -1.5264036655426025
      ],
      "type": "VEC3"
    },
    {
      "bufferView": 2,
      "byteOffset": 877404,
      "componentType": 5126,
      "count": 65533,
      "max": [
        0.9999572038650513,
        0.9999978542327881,
        1.0
      ],
      "min": [
        -1.0,
        -0.9999972581863403,
        -1.0
      ],
      "type": "VEC3"
    },
    {
      "bufferView": 1,
      "byteOffset": 30336,
      "componentType": 5126,
      "count": 65533,
      "max": [
        0.10000000149011612,
        0.09999990463256836
      ],
      "min": [
        0.0,
        0.0
      ],
      "type": "VEC2"
    },
    {
      "bufferView": 0,
      "byteOffset": 23760,
      "componentType": 5125,
      "count": 381681,
      "type": "SCALAR"
    },
    {
      "bufferView": 2,
      "byteOffset": 1663800,
      "componentType": 5126,
      "count": 65532,
      "max": [
        0.0685022845864296,
        0.010147624649107456,
        1.5466368198394775
      ],
      "min": [
        -0.05198869854211807,
        -0.011385586112737656,
        -1.5272080898284912
      ],
      "type": "VEC3"
    },
    {
      "bufferView": 2,
      "byteOffset": 2450184,
      "componentType": 5126,
      "count": 65532,
      "max": [
        0.9998615980148315,
        0.9999957084655762,
        1.0
      ],
      "min": [
        -0.9999016523361206,
        -0.999998927116394,
        -1.0
      ],
      "type": "VEC3"
    },
    {
      "bufferView": 1,
      "byteOffset": 554600,
      "componentType": 5126,
      "count": 65532,
      "max": [
        0.10000000149011612,
        0.09999990463256836
      ],
      "min": [
        0.0,
        0.0
      ],
      "type": "VEC2"
    },
    {
      "bufferView": 0,
      "byteOffset": 1550484,
      "componentType": 5125,
      "count": 381792,
      "type": "SCALAR"
    },
    {
      "bufferView": 2,
      "byteOffset": 3236568,
      "componentType": 5126,
      "count": 31113,
      "max": [
        0.06856338679790497,
        0.009963953867554665,
        1.5353549718856812
      ],
      "min": [
        -0.05227261409163475,
        -0.011729373596608639,
        -1.53998863697052
      ],
      "type": "VEC3"
    },
    {
      "bufferView": 2,
      "byteOffset": 3609924,
      "componentType": 5126,
      "count": 31113,
      "max": [
        1.0,
        1.0,
        1.0
      ],
      "min": [
        -1.0,
        -1.0,
        -1.0
      ],
      "type": "VEC3"
    },
    {
      "bufferView": 1,
      "byteOffset": 1078856,
      "componentType": 5126,
      "count": 31113,
      "max": [
        0.10000000149011612,
        0.09999990463256836
      ],
      "min": [
        0.0,
        0.0
      ],
      "type": "VEC2"
    },
    {
      "bufferView": 0,
      "byteOffset": 3077652,
      "componentType": 5125,
      "count": 175551,
      "type": "SCALAR"
    },
    {
      "bufferView": 2,
      "byteOffset": 3983280,
      "componentType": 5126,
      "count": 65532,
      "max": [
        0.052126288414001465,
        0.01000717282295227,
        1.5380975008010864
      ],
      "min": [
        -0.07437314838171005,
        -0.012217872776091099,
        -1.5437815189361572
      ],
      "type": "VEC3"
    },
    {
      "bufferView": 2,
      "byteOffset": 4769664,
      "componentType": 5126,
      "count": 65532,
      "max": [
        1.0,
        1.0,
        1.0
      ],
      "min": [
        -1.0,
        -0.9999990463256836,
        -1.0
      ],
      "type": "VEC3"
    },
    {
      "bufferView": 1,
      "byteOffset": 1327760,
      "componentType": 5126,
      "count": 65532,
      "max": [
        0.10000000149011612,
        0.09999990463256836
      ],
      "min": [
        0.0,
        0.0
      ],
      "type": "VEC2"
    },
    {
      "bufferView": 0,
      "byteOffset": 3779856,
      "componentType": 5125,
      "count": 381585,
      "type": "SCALAR"
    },
    {
      "bufferView": 2,
      "byteOffset": 5556048,
      "componentType": 5126,
      "count": 65532,
      "max": [
        0.052130162715911865,
        0.011455564759671688,
        1.529326319694519
      ],
      "min": [
        -0.07397009432315826,
        -0.013186232186853886,
        -1.5372068881988525
      ],
      "type": "VEC3"
    },
    {
      "bufferView": 2,
      "byteOffset": 6342432,
      "componentType": 5126,
      "count": 65532,
      "max": [
        1.0,
        0.9999995231628418,
        1.0
      ],
      "min": [
        -1.0,
        -0.999998927116394,
        -0.9999659061431885
      ],
      "type": "VEC3"
    },
    {
      "bufferView": 1,
      "byteOffset": 1852016,
      "componentType": 5126,
      "count": 65532,
      "max": [
        0.10000000149011612,
        0.09999990463256836
      ],
      "min": [
        0.0,
        0.0
      ],
      "type": "VEC2"
    },
    {
      "bufferView": 0,
      "byteOffset": 5306196,
      "componentType": 5125,
      "count": 380976,
      "type": "SCALAR"
    },
    {
      "bufferView": 2,
      "byteOffset": 7128816,
      "componentType": 5126,
      "count": 31091,
      "max": [
        0.05174023285508156,
        0.010244444012641907,
        1.5353745222091675
      ],
      "min": [
        -0.07380378246307373,
        -0.011826134286820889,
        -1.5414272546768188
      ],
      "type": "VEC3"
    },
    {
      "bufferView": 2,
      "byteOffset": 7501908,
      "componentType": 5126,
      "count": 31091,
      "max": [
        0.9999140501022339,
        0.9999991655349731,
        0.9998761415481567
      ],
      "min": [
        -0.9999231100082397,
        -0.9999997615814209,
        -1.0
      ],
      "type": "VEC3"
    },
    {
      "bufferView": 1,
      "byteOffset": 2376272,
      "componentType": 5126,
      "count": 31091,
      "max": [
        0.10000000149011612,
        0.09999990463256836
      ],
      "min": [
        0.0,
        0.0
      ],
      "type": "VEC2"
    },
    {
      "bufferView": 0,
      "byteOffset": 6830100,
      "componentType": 5125,
      "count": 177123,
      "type": "SCALAR"
    }
  ],
  "asset": {
    "extras": {
      "author": "mfb64 (https://sketchfab.com/mfb64)",
      "license": "CC-BY-4.0 (http://creativecommons.org/licenses/by/4.0/)",
      "source": "https://sketchfab.com/3d-models/persian-nain-carpet-dc98944361654db191422c91e685371a",
      "title": "Persian Nain Carpet"
    },
    "generator": "Sketchfab-12.65.0",
    "version": "2.0"
  },
  "bufferViews": [
    {
      "buffer": 0,
      "byteLength": 7538592,
      "name": "floatBufferViews",
      "target": 34963
    },
    {
      "buffer": 0,
      "byteLength": 2625000,
      "byteOffset": 7538592,
      "byteStride": 8,
      "name": "floatBufferViews",
      "target": 34962
    },
    {
      "buffer": 0,
      "byteLength": 7875000,
      "byteOffset": 10163592,
      "byteStride": 12,
      "name": "floatBufferViews",
      "target": 34962
    }
  ],
  "buffers": [
    {
      "byteLength": 18038592,
      "uri": "scene.bin"
    }
  ],
  "images": [
    {
      "uri": "textures/carpet_baseColor.jpeg"
    }
  ],
  "materials": [
    {
      "doubleSided": true,
      "name": "carpet",
      "pbrMetallicRoughness": {
        "baseColorTexture": {
          "index": 0
        },
        "metallicFactor": 0.0,
        "roughnessFactor": 0.5
      }
    },
    {
      "doubleSided": true,
      "name": "VELVET-GREEN__Budapest",
      "pbrMetallicRoughness": {
        "baseColorFactor": [
          0.8,
          0.772637,
          0.605329,
          1.0
        ],
        "metallicFactor": 0.0,
        "roughnessFactor": 0.95
      }
    }
  ],
  "meshes": [
    {
      "name": "Object_0",
      "primitives": [
        {
          "attributes": {
            "NORMAL": 1,
            "POSITION": 0,
            "TEXCOORD_0": 2
          },
          "indices": 3,
          "material": 0,
          "mode": 4
        }
      ]
    },
    {
      "name": "Object_1",
      "primitives": [
        {
          "attributes": {
            "NORMAL": 5,
            "POSITION": 4,
            "TEXCOORD_0": 6
          },
          "indices": 7,
          "material": 1,
          "mode": 4
        }
      ]
    },
    {
      "name": "Object_2",
      "primitives": [
        {
          "attributes": {
            "NORMAL": 9,
            "POSITION": 8,
            "TEXCOORD_0": 10
          },
          "indices": 11,
          "material": 1,
          "mode": 4
        }
      ]
    },
    {
      "name": "Object_3",
      "primitives": [
        {
          "attributes": {
            "NORMAL": 13,
            "POSITION": 12,
            "TEXCOORD_0": 14
          },
          "indices": 15,
          "material": 1,
          "mode": 4
        }
      ]
    },
    {
      "name": "Object_4",
      "primitives": [
        {
          "attributes": {
            "NORMAL": 17,
            "POSITION": 16,
            "TEXCOORD_0": 18
          },
          "indices": 19,
          "material": 1,
          "mode": 4
        }
      ]
    },
    {
      "name": "Object_5",
      "primitives": [
        {
          "attributes": {
            "NORMAL": 21,
            "POSITION": 20,
            "TEXCOORD_0": 22
          },
          "indices": 23,
          "material": 1,
          "mode": 4
        }
      ]
    },
    {
      "name": "Object_6",
      "primitives": [
        {
          "attributes": {
            "NORMAL": 25,
            "POSITION": 24,
            "TEXCOORD_0": 26
          },
          "indices": 27,
          "material": 1,
          "mode": 4
        }
      ]
    }
  ],
  "nodes": [
    {
      "children": [
        1
      ],
      "matrix": [
        1.0,
        0.0,
        0.0,
        0.0,
        0.0,
        2.220446049250313e-16,
        -1.0,
        0.0,
        0.0,
        1.0,
        2.220446049250313e-16,
        0.0,
        0.0,
        0.0,
        0.0,
        1.0
      ],
      "name": "Sketchfab_model"
    },
    {
      "children": [
        2
      ],
      "name": "root"
    },
    {
      "children": [
        3
      ],
      "matrix": [
        1.0,
        0.0,
        0.0,
        0.0,
        0.0,
        2.220446049250313e-16,
        1.0,
        0.0,
        0.0,
        -1.0,
        2.220446049250313e-16,
        0.0,
        0.0,
        0.0,
        0.0,
        1.0
      ],
      "name": "GLTF_SceneRootNode"
    },
    {
      "children": [
        4,
        5,
        9
      ],
      "name": "Persian Nain Carpet_2"
    },
    {
      "mesh": 0,
      "name": "Object_4"
    },
    {
      "children": [
        6,
        7,
        8
      ],
      "matrix": [
        1.0,
        0.0,
        0.0,
        0.0,
        0.0,
        1.0,
        0.0,
        0.0,
        0.0,
        0.0,
        1.0,
        0.0,
        -2.020810127258301,
        0.0011333513539284468,
        -0.0016579553484916687,
        1.0
      ],
      "name": "frange1_0"
    },
    {
      "mesh": 1,
      "name": "Object_6"
    },
    {
      "mesh": 2,
      "name": "Object_7"
    },
    {
      "mesh": 3,
      "name": "Object_8"
    },
    {
      "children": [
        10,
        11,
        12
      ],
      "matrix": [
        1.0,
        0.0,
        0.0,
        0.0,
        0.0,
        1.0,
        0.0,
        0.0,
        0.0,
        0.0,
        1.0,
        0.0,
        2.0443990230560303,
        -0.00011475867358967662,
        -0.009323998354375362,
        1.0
      ],
      "name": "frange2_1"
    },
    {
      "mesh": 4,
      "name": "Object_10"
    },
    {
      "mesh": 5,
      "name": "Object_11"
    },
    {
      "mesh": 6,
      "name": "Object_12"
    }
  ],
  "samplers": [
    {
      "magFilter": 9729,
      "minFilter": 9987,
      "wrapS": 10497,
      "wrapT": 10497
    }
  ],
  "scene": 0,
  "scenes": [
    {
      "name": "Sketchfab_Scene",
      "nodes": [
        0
      ]
    }
  ],
  "textures": [
    {
      "sampler": 0,
      "source": 0
    }
  ]
}
