{
  "accessors": [
    {
      "bufferView": 2,
      "componentType": 5126,
      "count": 14052,
      "max": [
        418.0135498046875,
        647.068359375,
        260.993896484375
      ],
      "min": [
        -502.60369873046875,
        -27.083711624145508,
        -659.6233520507813
      ],
      "type": "VEC3"
    },
    {
      "bufferView": 2,
      "byteOffset": 168624,
      "componentType": 5126,
      "count": 14052,
      "max": [
        1.0,
        1.0,
        1.0
      ],
      "min": [
        -1.0,
        -1.0,
        -1.0
      ],
      "type": "VEC3"
    },
    {
      "bufferView": 3,
      "componentType": 5126,
      "count": 14052,
      "max": [
        1.0,
        1.0,
        1.0,
        1.0
      ],
      "min": [
        -1.0,
        -1.0,
        -1.0,
        -1.0
      ],
      "type": "VEC4"
    },
    {
      "bufferView": 1,
      "componentType": 5126,
      "count": 14052,
      "max": [
        0.9988499283790588,
        0.9985328912734985
      ],
      "min": [
        -0.004327825736254454,
        -0.0035623908042907715
      ],
      "type": "VEC2"
    },
    {
      "bufferView": 0,
      "componentType": 5125,
      "count": 30402,
      "type": "SCALAR"
    }
  ],
  "asset": {
    "extras": {
      "author": "Dinh Vi (https://sketchfab.com/dinhvi)",
      "license": "CC-BY-4.0 (http://creativecommons.org/licenses/by/4.0/)",
      "source": "https://sketchfab.com/3d-models/japan-temple-fbe52ed7c183432dbd5a12cfbf169bb0",
      "title": "Japan Temple"
    },
    "generator": "Sketchfab-12.66.0",
    "version": "2.0"
  },
  "bufferViews": [
    {
      "buffer": 0,
      "byteLength": 121608,
      "name": "floatBufferViews",
      "target": 34963
    },
    {
      "buffer": 0,
      "byteLength": 112416,
      "byteOffset": 121608,
      "byteStride": 8,
      "name": "floatBufferViews",
      "target": 34962
    },
    {
      "buffer": 0,
      "byteLength": 337248,
      "byteOffset": 234024,
      "byteStride": 12,
      "name": "floatBufferViews",
      "target": 34962
    },
    {
      "buffer": 0,
      "byteLength": 224832,
      "byteOffset": 571272,
      "byteStride": 16,
      "name": "floatBufferViews",
      "target": 34962
    }
  ],
  "buffers": [
    {
      "byteLength": 796104,
      "uri": "scene.bin"
    }
  ],
  "images": [
    {
      "uri": "textures/lambert1_baseColor.png"
    },
    {
      "uri": "textures/lambert1_metallicRoughness.png"
    },
    {
      "uri": "textures/lambert1_normal.png"
    }
  ],
  "materials": [
    {
      "alphaMode": "BLEND",
      "name": "lambert1",
      "normalTexture": {
        "index": 2
      },
      "occlusionTexture": {
        "index": 1
      },
      "pbrMetallicRoughness": {
        "baseColorTexture": {
          "index": 0
        },
        "metallicRoughnessTexture": {
          "index": 1
        }
      }
    }
  ],
  "meshes": [
    {
      "name": "polySurface1168_lambert1_0",
      "primitives": [
        {
          "attributes": {
            "NORMAL": 1,
            "POSITION": 0,
            "TANGENT": 2,
            "TEXCOORD_0": 3
          },
          "indices": 4,
          "material": 0,
          "mode": 4
        }
      ]
    }
  ],
  "nodes": [
    {
      "children": [
        1
      ],
      "matrix": [
        1.0,
        0.0,
        0.0,
        0.0,
        0.0,
        3.828568672208042e-16,
        -1.0,
        0.0,
        0.0,
        1.0,
        3.828568672208042e-16,
        0.0,
        0.0,
        1.1212932655092621e-29,
        -5.0498559327205594e-14,
        1.0
      ],
      "name": "Sketchfab_model"
    },
    {
      "children": [
        2
      ],
      "matrix": [
        1.0,
        0.0,
        0.0,
        0.0,
        0.0,
        0.0,
        1.0,
        0.0,
        0.0,
        -1.0,
        0.0,
        0.0,
        0.0,
        0.0,
        0.0,
        1.0
      ],
      "name": "92a738a41d4d420bbcae4074d9dd7c6c.fbx"
    },
    {
      "children": [
        3
      ],
      "name": "RootNode"
    },
    {
      "children": [
        4
      ],
      "name": "grass"
    },
    {
      "children": [
        5
      ],
      "matrix": [
        0.2948265650273837,
        0.0,
        -0.9555507817767478,
        0.0,
        0.0,
        1.0,
        0.0,
        0.0,
        0.9555507817767478,
        0.0,
        0.2948265650273837,
        0.0,
        -166.44447326660156,
        2.842088460922241,
        -17.471355438232422,
        1.0
      ],
      "name": "polySurface1071"
    },
    {
      "children": [
        6
      ],
      "matrix": [
        0.2948265650273837,
        0.0,
        0.9555507817767478,
        0.0,
        0.0,
        1.0,
        0.0,
        0.0,
        -0.9555507817767478,
        0.0,
        0.2948265650273837,
        0.0,
        -145.60818481445313,
        1.187500238418579,
        263.3755187988281,
        1.0
      ],
      "name": "polySurface1168"
    },
    {
      "mesh": 0,
      "name": "polySurface1168_lambert1_0"
    }
  ],
  "samplers": [
    {
      "magFilter": 9729,
      "minFilter": 9987,
      "wrapS": 10497,
      "wrapT": 10497
    }
  ],
  "scene": 0,
  "scenes": [
    {
      "name": "Sketchfab_Scene",
      "nodes": [
        0
      ]
    }
  ],
  "textures": [
    {
      "sampler": 0,
      "source": 0
    },
    {
      "sampler": 0,
      "source": 1
    },
    {
      "sampler": 0,
      "source": 2
    }
  ]
}
