{
  "accessors": [
    {
      "bufferView": 2,
      "componentType": 5126,
      "count": 3222,
      "max": [
        4.919608116149902,
        4.012388229370117,
        7.750337600708008
      ],
      "min": [
        -4.8443498611450195,
        -4.012387752532959,
        -0.7340190410614014
      ],
      "type": "VEC3"
    },
    {
      "bufferView": 2,
      "byteOffset": 38664,
      "componentType": 5126,
      "count": 3222,
      "max": [
        1.0,
        1.0,
        1.0
      ],
      "min": [
        -1.0,
        -1.0,
        -0.9999595880508423
      ],
      "type": "VEC3"
    },
    {
      "bufferView": 3,
      "componentType": 5126,
      "count": 3222,
      "max": [
        1.0,
        1.0,
        1.0,
        1.0
      ],
      "min": [
        -1.0,
        -1.0,
        -0.9996654987335205,
        -1.0
      ],
      "type": "VEC4"
    },
    {
      "bufferView": 1,
      "componentType": 5126,
      "count": 3222,
      "max": [
        0.9962395429611206,
        0.9955978393554688
      ],
      "min": [
        0.0035966304130852222,
        0.0024697170592844486
      ],
      "type": "VEC2"
    },
    {
      "bufferView": 0,
      "componentType": 5125,
      "count": 7908,
      "type": "SCALAR"
    },
    {
      "bufferView": 2,
      "byteOffset": 77328,
      "componentType": 5126,
      "count": 3664,
      "max": [
        7.255778789520264,
        4.012388229370117,
        7.750337600708008
      ],
      "min": [
        -4.8443498611450195,
        -4.012387752532959,
        -0.7340190410614014
      ],
      "type": "VEC3"
    },
    {
      "bufferView": 2,
      "byteOffset": 121296,
      "componentType": 5126,
      "count": 3664,
      "max": [
        1.0,
        1.0,
        1.0
      ],
      "min": [
        -1.0,
        -1.0,
        -0.9999595880508423
      ],
      "type": "VEC3"
    },
    {
      "bufferView": 3,
      "byteOffset": 51552,
      "componentType": 5126,
      "count": 3664,
      "max": [
        1.0,
        1.0,
        1.0,
        1.0
      ],
      "min": [
        -1.0,
        -1.0,
        -0.9996654987335205,
        -1.0
      ],
      "type": "VEC4"
    },
    {
      "bufferView": 1,
      "byteOffset": 25776,
      "componentType": 5126,
      "count": 3664,
      "max": [
        0.9962395429611206,
        0.9955978393554688
      ],
      "min": [
        0.0035966304130852222,
        0.0024697170592844486
      ],
      "type": "VEC2"
    },
    {
      "bufferView": 0,
      "byteOffset": 31632,
      "componentType": 5125,
      "count": 8916,
      "type": "SCALAR"
    },
    {
      "bufferView": 2,
      "byteOffset": 165264,
      "componentType": 5126,
      "count": 4912,
      "max": [
        7.255778789520264,
        4.012388229370117,
        10.467214584350586
      ],
      "min": [
        -4.8443498611450195,
        -4.012387752532959,
        -0.7340190410614014
      ],
      "type": "VEC3"
    },
    {
      "bufferView": 2,
      "byteOffset": 224208,
      "componentType": 5126,
      "count": 4912,
      "max": [
        1.0,
        1.0,
        1.0
      ],
      "min": [
        -1.0,
        -1.0,
        -1.0
      ],
      "type": "VEC3"
    },
    {
      "bufferView": 3,
      "byteOffset": 110176,
      "componentType": 5126,
      "count": 4912,
      "max": [
        1.0,
        1.0,
        1.0,
        1.0
      ],
      "min": [
        -1.0,
        -1.0,
        -1.0,
        -1.0
      ],
      "type": "VEC4"
    },
    {
      "bufferView": 1,
      "byteOffset": 55088,
      "componentType": 5126,
      "count": 4912,
      "max": [
        0.9962395429611206,
        0.9955978393554688
      ],
      "min": [
        0.0035966304130852222,
        0.0024697170592844486
      ],
      "type": "VEC2"
    },
    {
      "bufferView": 0,
      "byteOffset": 67296,
      "componentType": 5125,
      "count": 11424,
      "type": "SCALAR"
    }
  ],
  "asset": {
    "extras": {
      "author": "kolya5561 (https://sketchfab.com/kolya5561)",
      "license": "CC-BY-4.0 (http://creativecommons.org/licenses/by/4.0/)",
      "source": "https://sketchfab.com/3d-models/japanese-house-minka-1b757cde000240cb84d571032946bfe6",
      "title": "Japanese house \"minka\""
    },
    "generator": "Sketchfab-12.66.0",
    "version": "2.0"
  },
  "bufferViews": [
    {
      "buffer": 0,
      "byteLength": 112992,
      "name": "floatBufferViews",
      "target": 34963
    },
    {
      "buffer": 0,
      "byteLength": 94384,
      "byteOffset": 112992,
      "byteStride": 8,
      "name": "floatBufferViews",
      "target": 34962
    },
    {
      "buffer": 0,
      "byteLength": 283152,
      "byteOffset": 207376,
      "byteStride": 12,
      "name": "floatBufferViews",
      "target": 34962
    },
    {
      "buffer": 0,
      "byteLength": 188768,
      "byteOffset": 490528,
      "byteStride": 16,
      "name": "floatBufferViews",
      "target": 34962
    }
  ],
  "buffers": [
    {
      "byteLength": 679296,
      "uri": "scene.bin"
    }
  ],
  "images": [
    {
      "uri": "textures/house_mat_baseColor.png"
    },
    {
      "uri": "textures/house_mat_metallicRoughness.png"
    },
    {
      "uri": "textures/house_mat_normal.png"
    }
  ],
  "materials": [
    {
      "doubleSided": true,
      "name": "house_mat",
      "normalTexture": {
        "index": 2
      },
      "occlusionTexture": {
        "index": 1,
        "strength": 0.7
      },
      "pbrMetallicRoughness": {
        "baseColorTexture": {
          "index": 0
        },
        "metallicFactor": 0.0,
        "metallicRoughnessTexture": {
          "index": 1
        }
      }
    }
  ],
  "meshes": [
    {
      "name": "House_house_mat_0",
      "primitives": [
        {
          "attributes": {
            "NORMAL": 1,
            "POSITION": 0,
            "TANGENT": 2,
            "TEXCOORD_0": 3
          },
          "indices": 4,
          "material": 0,
          "mode": 4
        }
      ]
    },
    {
      "name": "House001_house_mat_0",
      "primitives": [
        {
          "attributes": {
            "NORMAL": 6,
            "POSITION": 5,
            "TANGENT": 7,
            "TEXCOORD_0": 8
          },
          "indices": 9,
          "material": 0,
          "mode": 4
        }
      ]
    },
    {
      "name": "House002_house_mat_0",
      "primitives": [
        {
          "attributes": {
            "NORMAL": 11,
            "POSITION": 10,
            "TANGENT": 12,
            "TEXCOORD_0": 13
          },
          "indices": 14,
          "material": 0,
          "mode": 4
        }
      ]
    }
  ],
  "nodes": [
    {
      "children": [
        1
      ],
      "matrix": [
        0.2627735137939453,
        0.0,
        0.0,
        0.0,
        0.0,
        5.834744105513885e-17,
        -0.2627735137939453,
        0.0,
        0.0,
        0.2627735137939453,
        5.834744105513885e-17,
        0.0,
        0.0,
        0.0,
        0.0,
        1.0
      ],
      "name": "Sketchfab_model"
    },
    {
      "children": [
        2
      ],
      "matrix": [
        1.0,
        0.0,
        0.0,
        0.0,
        0.0,
        0.0,
        1.0,
        0.0,
        0.0,
        -1.0,
        0.0,
        0.0,
        0.0,
        0.0,
        0.0,
        1.0
      ],
      "name": "f0742df7615b4967a947cad81137d97b.fbx"
    },
    {
      "children": [
        3,
        5,
        7
      ],
      "name": "RootNode"
    },
    {
      "children": [
        4
      ],
      "matrix": [
        1.0,
        0.0,
        0.0,
        0.0,
        0.0,
        2.220446049250313e-16,
        -1.0,
        0.0,
        0.0,
        1.0,
        2.220446049250313e-16,
        0.0,
        0.0,
        0.0,
        0.0,
        1.0
      ],
      "name": "House"
    },
    {
      "mesh": 0,
      "name": "House_house_mat_0"
    },
    {
      "children": [
        6
      ],
      "matrix": [
        1.0,
        0.0,
        0.0,
        0.0,
        0.0,
        2.220446049250313e-16,
        -1.0,
        0.0,
        0.0,
        1.0,
        2.220446049250313e-16,
        0.0,
        0.0,
        0.0,
        -9.894414901733398,
        1.0
      ],
      "name": "House001"
    },
    {
      "mesh": 1,
      "name": "House001_house_mat_0"
    },
    {
      "children": [
        8
      ],
      "matrix": [
        1.0,
        0.0,
        0.0,
        0.0,
        0.0,
        2.220446049250313e-16,
        -1.0,
        0.0,
        0.0,
        1.0,
        2.220446049250313e-16,
        0.0,
        0.0,
        0.0,
        -20.153976440429688,
        1.0
      ],
      "name": "House002"
    },
    {
      "mesh": 2,
      "name": "House002_house_mat_0"
    }
  ],
  "samplers": [
    {
      "magFilter": 9729,
      "minFilter": 9987,
      "wrapS": 10497,
      "wrapT": 10497
    }
  ],
  "scene": 0,
  "scenes": [
    {
      "name": "Sketchfab_Scene",
      "nodes": [
        0
      ]
    }
  ],
  "textures": [
    {
      "sampler": 0,
      "source": 0
    },
    {
      "sampler": 0,
      "source": 1
    },
    {
      "sampler": 0,
      "source": 2
    }
  ]
}
