{
  "accessors": [
    {
      "bufferView": 2,
      "componentType": 5126,
      "count": 26132,
      "max": [
        0.7338299751281738,
        0.928879976272583,
        -0.32238999009132385
      ],
      "min": [
        -0.7733200192451477,
        -0.9457100033760071,
        -1.0001499652862549
      ],
      "type": "VEC3"
    },
    {
      "bufferView": 2,
      "byteOffset": 313584,
      "componentType": 5126,
      "count": 26132,
      "max": [
        1.0,
        0.5771338939666748,
        1.0
      ],
      "min": [
        -1.0,
        -0.9971088171005249,
        -0.9991781115531921
      ],
      "type": "VEC3"
    },
    {
      "bufferView": 1,
      "componentType": 5126,
      "count": 26132,
      "max": [
        0.786270022392273,
        1.0290700197219849
      ],
      "min": [
        0.23413999378681183,
        -0.021730000153183937
      ],
      "type": "VEC2"
    },
    {
      "bufferView": 0,
      "componentType": 5125,
      "count": 26136,
      "type": "SCALAR"
    },
    {
      "bufferView": 2,
      "byteOffset": 627168,
      "componentType": 5126,
      "count": 24,
      "max": [
        1.720080018043518,
        0.9007200002670288,
        0.12370000034570694
      ],
      "min": [
        -1.720080018043518,
        -0.9007200002670288,
        -0.12370000034570694
      ],
      "type": "VEC3"
    },
    {
      "bufferView": 2,
      "byteOffset": 627456,
      "componentType": 5126,
      "count": 24,
      "max": [
        1.0,
        1.0,
        1.0
      ],
      "min": [
        -1.0,
        -1.0,
        -1.0
      ],
      "type": "VEC3"
    },
    {
      "bufferView": 1,
      "byteOffset": 209056,
      "componentType": 5126,
      "count": 24,
      "max": [
        0.999970018863678,
        1.0025099515914917
      ],
      "min": [
        -0.001610000035725534,
        -0.0025100000202655792
      ],
      "type": "VEC2"
    },
    {
      "bufferView": 1,
      "byteOffset": 209248,
      "componentType": 5126,
      "count": 24,
      "max": [
        0.999970018863678,
        1.0025099515914917
      ],
      "min": [
        -0.001610000035725534,
        -0.0025100000202655792
      ],
      "type": "VEC2"
    },
    {
      "bufferView": 0,
      "byteOffset": 104544,
      "componentType": 5125,
      "count": 36,
      "type": "SCALAR"
    },
    {
      "bufferView": 2,
      "byteOffset": 627744,
      "componentType": 5126,
      "count": 24,
      "max": [
        1.720080018043518,
        0.9007200002670288,
        0.12370000034570694
      ],
      "min": [
        -1.720080018043518,
        -0.9007200002670288,
        -0.12370000034570694
      ],
      "type": "VEC3"
    },
    {
      "bufferView": 2,
      "byteOffset": 628032,
      "componentType": 5126,
      "count": 24,
      "max": [
        1.0,
        1.0,
        1.0
      ],
      "min": [
        -1.0,
        -1.0,
        -1.0
      ],
      "type": "VEC3"
    },
    {
      "bufferView": 1,
      "byteOffset": 209440,
      "componentType": 5126,
      "count": 24,
      "max": [
        0.9457700252532959,
        1.5796799659729004
      ],
      "min": [
        0.05423000082373619,
        -0.5796700119972229
      ],
      "type": "VEC2"
    },
    {
      "bufferView": 1,
      "byteOffset": 209632,
      "componentType": 5126,
      "count": 24,
      "max": [
        0.9457700252532959,
        1.5796799659729004
      ],
      "min": [
        0.05423000082373619,
        -0.5796700119972229
      ],
      "type": "VEC2"
    },
    {
      "bufferView": 0,
      "byteOffset": 104688,
      "componentType": 5125,
      "count": 36,
      "type": "SCALAR"
    },
    {
      "bufferView": 2,
      "byteOffset": 628320,
      "componentType": 5126,
      "count": 24,
      "max": [
        1.720080018043518,
        0.9007200002670288,
        0.12370000034570694
      ],
      "min": [
        -1.720080018043518,
        -0.9007200002670288,
        -0.12370000034570694
      ],
      "type": "VEC3"
    },
    {
      "bufferView": 2,
      "byteOffset": 628608,
      "componentType": 5126,
      "count": 24,
      "max": [
        1.0,
        1.0,
        1.0
      ],
      "min": [
        -1.0,
        -1.0,
        -1.0
      ],
      "type": "VEC3"
    },
    {
      "bufferView": 1,
      "byteOffset": 209824,
      "componentType": 5126,
      "count": 24,
      "max": [
        0.936460018157959,
        1.5552400350570679
      ],
      "min": [
        0.06353999674320221,
        -0.5552899837493896
      ],
      "type": "VEC2"
    },
    {
      "bufferView": 1,
      "byteOffset": 210016,
      "componentType": 5126,
      "count": 24,
      "max": [
        0.936460018157959,
        1.5552400350570679
      ],
      "min": [
        0.06353999674320221,
        -0.5552899837493896
      ],
      "type": "VEC2"
    },
    {
      "bufferView": 0,
      "byteOffset": 104832,
      "componentType": 5125,
      "count": 36,
      "type": "SCALAR"
    },
    {
      "bufferView": 2,
      "byteOffset": 628896,
      "componentType": 5126,
      "count": 24,
      "max": [
        1.720080018043518,
        0.9007200002670288,
        0.12370000034570694
      ],
      "min": [
        -1.720080018043518,
        -0.9007200002670288,
        -0.12370000034570694
      ],
      "type": "VEC3"
    },
    {
      "bufferView": 2,
      "byteOffset": 629184,
      "componentType": 5126,
      "count": 24,
      "max": [
        1.0,
        1.0,
        1.0
      ],
      "min": [
        -1.0,
        -1.0,
        -1.0
      ],
      "type": "VEC3"
    },
    {
      "bufferView": 1,
      "byteOffset": 210208,
      "componentType": 5126,
      "count": 24,
      "max": [
        0.748960018157959,
        1.1199400424957275
      ],
      "min": [
        0.24094000458717346,
        -0.11993999779224396
      ],
      "type": "VEC2"
    },
    {
      "bufferView": 1,
      "byteOffset": 210400,
      "componentType": 5126,
      "count": 24,
      "max": [
        0.748960018157959,
        1.1199400424957275
      ],
      "min": [
        0.24094000458717346,
        -0.11993999779224396
      ],
      "type": "VEC2"
    },
    {
      "bufferView": 0,
      "byteOffset": 104976,
      "componentType": 5125,
      "count": 36,
      "type": "SCALAR"
    }
  ],
  "asset": {
    "extras": {
      "author": "Geraldo Pratama Wahyu Teddy (https://sketchfab.com/juyo)",
      "license": "CC-BY-4.0 (http://creativecommons.org/licenses/by/4.0/)",
      "source": "https://sketchfab.com/3d-models/japanese-tea-table-c59fbfc80a7f4cc7b691934359eb4b9e",
      "title": "Japanese Tea Table"
    },
    "generator": "Sketchfab-12.66.0",
    "version": "2.0"
  },
  "bufferViews": [
    {
      "buffer": 0,
      "byteLength": 105120,
      "name": "floatBufferViews",
      "target": 34963
    },
    {
      "buffer": 0,
      "byteLength": 210592,
      "byteOffset": 105120,
      "byteStride": 8,
      "name": "floatBufferViews",
      "target": 34962
    },
    {
      "buffer": 0,
      "byteLength": 629472,
      "byteOffset": 315712,
      "byteStride": 12,
      "name": "floatBufferViews",
      "target": 34962
    }
  ],
  "buffers": [
    {
      "byteLength": 945184,
      "uri": "scene.bin"
    }
  ],
  "images": [
    {
      "uri": "textures/Material_baseColor.png"
    },
    {
      "uri": "textures/Material.001_baseColor.png"
    }
  ],
  "materials": [
    {
      "doubleSided": true,
      "name": "Material",
      "pbrMetallicRoughness": {
        "baseColorTexture": {
          "index": 0
        },
        "metallicFactor": 0.0,
        "roughnessFactor": 0.6
      }
    },
    {
      "doubleSided": true,
      "name": "Material.001",
      "pbrMetallicRoughness": {
        "baseColorTexture": {
          "index": 1
        },
        "metallicFactor": 0.0,
        "roughnessFactor": 0.6
      }
    }
  ],
  "meshes": [
    {
      "name": "Plane_0",
      "primitives": [
        {
          "attributes": {
            "NORMAL": 1,
            "POSITION": 0,
            "TEXCOORD_0": 2
          },
          "indices": 3,
          "material": 1,
          "mode": 4
        }
      ]
    },
    {
      "name": "Cube_0",
      "primitives": [
        {
          "attributes": {
            "NORMAL": 5,
            "POSITION": 4,
            "TEXCOORD_0": 6,
            "TEXCOORD_1": 7
          },
          "indices": 8,
          "material": 0,
          "mode": 4
        }
      ]
    },
    {
      "name": "Cube.001_0",
      "primitives": [
        {
          "attributes": {
            "NORMAL": 10,
            "POSITION": 9,
            "TEXCOORD_0": 11,
            "TEXCOORD_1": 12
          },
          "indices": 13,
          "material": 0,
          "mode": 4
        }
      ]
    },
    {
      "name": "Cube.003_0",
      "primitives": [
        {
          "attributes": {
            "NORMAL": 15,
            "POSITION": 14,
            "TEXCOORD_0": 16,
            "TEXCOORD_1": 17
          },
          "indices": 18,
          "material": 0,
          "mode": 4
        }
      ]
    },
    {
      "name": "Cube.002_0",
      "primitives": [
        {
          "attributes": {
            "NORMAL": 20,
            "POSITION": 19,
            "TEXCOORD_0": 21,
            "TEXCOORD_1": 22
          },
          "indices": 23,
          "material": 0,
          "mode": 4
        }
      ]
    }
  ],
  "nodes": [
    {
      "children": [
        1
      ],
      "matrix": [
        1.0,
        0.0,
        0.0,
        0.0,
        0.0,
        2.220446049250313e-16,
        -1.0,
        0.0,
        0.0,
        1.0,
        2.220446049250313e-16,
        0.0,
        0.0,
        0.0,
        0.0,
        1.0
      ],
      "name": "Sketchfab_model"
    },
    {
      "children": [
        2,
        4,
        6,
        8,
        10
      ],
      "name": "Root"
    },
    {
      "children": [
        3
      ],
      "matrix": [
        2.36109,
        0.0,
        0.0,
        0.0,
        0.0,
        0.62533,
        0.0,
        0.0,
        0.0,
        0.0,
        1.0,
        0.0,
        0.02730000000000001,
        -0.007740000000000002,
        0.49464,
        1.0
      ],
      "name": "Plane"
    },
    {
      "mesh": 0,
      "name": "Plane_0"
    },
    {
      "children": [
        5
      ],
      "name": "Cube"
    },
    {
      "mesh": 1,
      "name": "Cube_0"
    },
    {
      "children": [
        7
      ],
      "matrix": [
        -0.0,
        0.0,
        -0.23790000000000003,
        0.0,
        0.0,
        0.95446,
        0.0,
        0.0,
        0.6722700000000001,
        0.0,
        -0.0,
        0.0,
        1.3,
        0.0,
        -0.44200000000000006,
        1.0
      ],
      "name": "Cube.001"
    },
    {
      "mesh": 2,
      "name": "Cube.001_0"
    },
    {
      "children": [
        9
      ],
      "matrix": [
        -0.0,
        0.0,
        -0.23790000000000003,
        0.0,
        0.0,
        0.9587400000000001,
        0.0,
        0.0,
        0.6722700000000001,
        0.0,
        -0.0,
        0.0,
        -1.3,
        0.0,
        -0.44200000000000006,
        1.0
      ],
      "name": "Cube.003"
    },
    {
      "mesh": 3,
      "name": "Cube.003_0"
    },
    {
      "children": [
        11
      ],
      "matrix": [
        0.7691700000000001,
        0.0,
        0.0,
        0.0,
        0.0,
        0.91823,
        0.0,
        0.0,
        0.0,
        0.0,
        0.37414000000000003,
        0.0,
        0.017810000000000003,
        0.0,
        -0.6341800000000001,
        1.0
      ],
      "name": "Cube.002"
    },
    {
      "mesh": 4,
      "name": "Cube.002_0"
    }
  ],
  "samplers": [
    {
      "magFilter": 9729,
      "minFilter": 9987,
      "wrapS": 10497,
      "wrapT": 10497
    }
  ],
  "scene": 0,
  "scenes": [
    {
      "name": "Sketchfab_Scene",
      "nodes": [
        0
      ]
    }
  ],
  "textures": [
    {
      "sampler": 0,
      "source": 0
    },
    {
      "sampler": 0,
      "source": 1
    }
  ]
}
